# xmcd
#
# Track frame offsets:
# 150
# 11320
# 22832
# 32667
# 44464
# 54168
# 67828
# 82548
# 95680
# 105536
#
# Disc length: 1574 seconds
#
#
# Revision: 4
# Processed by: cddbd v1.5.2PL0 Copyright (c) Steve Scherf et al.
# Submitted via: FreeRIP 2.951 
#
DISCID=6006240a
DTITLE=Various Artist - Country Love Disc 2 of 3
DYEAR=2003
DGENRE=Country
TTITLE0=Conway Twitty - Hello Darlin'
TTITLE1=Freddy Fender - Before the Next Teardrop Falls
TTITLE2=Hank Locklin - Please Help Me, I'm Falling (In Love With You)
TTITLE3=Skeeter Davis - (I Can't Help You) I'm Falling Too
TTITLE4=Ned Miller - From A Jack to a King
TTITLE5=Lee Greenwood - Don't Understimate My Love For You
TTITLE6=Jody Miller - Baby, I'm Yours
TTITLE7=Bobby Helms - My Special Angel
TTITLE8=Bob Luman - When You Say Love
TTITLE9=Dickey Lee - Never Ending Song of Love
EXTD=
EXTT0=
EXTT1=
EXTT2=
EXTT3=
EXTT4=
EXTT5=
EXTT6=
EXTT7=
EXTT8=
EXTT9=
PLAYORDER=
